<?xml version="1.0"?>
<svg xmlns="http://www.w3.org/2000/svg" xmlns:xlink="http://www.w3.org/1999/xlink" version="1.1" id="Layer_1" x="0px" y="0px" viewBox="0 0 512 512" style="enable-background:new 0 0 512 512;" xml:space="preserve" width="512px" height="512px" class=""><g><g><g>
	<polygon style="fill:#6DE9E4" points="255.999,450.013 0,191.905 97.783,61.992 414.217,61.992 512,191.905  " data-original="#6DE9E4" class="" data-old_color="#6CE8E3"/>
	<polygon style="fill:#6DE9E4" points="511.999,191.909 255.999,450.013 389.005,191.909  " data-original="#6DE9E4" class="" data-old_color="#6CE8E3"/>
</g><g>
	<polygon style="fill:#A6F2E5" points="255.999,191.909 255.999,450.013 389.005,191.909  " data-original="#A6F2E5" class="" data-old_color="#A5F0E3"/>
	<polygon style="fill:#A6F2E5" points="97.783,61.987 122.994,191.909 0,191.909  " data-original="#A6F2E5" class="" data-old_color="#A5F0E3"/>
</g><polygon style="fill:#E6FCF6" points="122.994,191.909 255.999,191.909 255.999,61.987 " data-original="#E6FCF6" class="" data-old_color="#E5FCF6"/><g>
	<polygon style="fill:#8FD4F9" points="414.216,61.987 511.999,191.909 389.005,191.909  " data-original="#8FD4F9" class="active-path" data-old_color="#86CFF7"/>
	<polygon style="fill:#8FD4F9" points="122.994,191.909 255.999,450.013 255.999,191.909  " data-original="#8FD4F9" class="active-path" data-old_color="#86CFF7"/>
	<polygon style="fill:#8FD4F9" points="255.999,61.987 122.994,191.909 97.783,61.987  " data-original="#8FD4F9" class="active-path" data-old_color="#86CFF7"/>
</g><polygon style="fill:#E6FCF6" points="255.999,61.987 389.005,191.909 414.216,61.987 " data-original="#E6FCF6" class="" data-old_color="#E5FCF6"/></g></g> </svg>
